#!OML:ASF I:\golf\golf\golf 2\Subject 1\2002-09-07\Subject1.ASF
:FULLY-SPECIFIED
:DEGREES
212
root 1.20834 17.9873 -5.5346 15.9807 1.40379 -5.83604
lowerback 3.98964 1.20685 -4.05467
upperback 5.17961 1.47252 3.20387
thorax 2.9388 0.536383 5.58594
lowerneck -14.1285 2.47553 0.832933
upperneck 41.8696 8.14498 -10.1612
head 18.9308 2.0654 -3.44172
rclavicle 1.63997e-015 2.28602e-014
rhumerus -16.074 -1.8761 -81.6836
rradius 33.8768
rwrist -11.4932
rhand -20.5173 12.8512
rfingers 7.12502
rthumb 5.84044 -17.0483
lclavicle 1.63997e-015 2.28602e-014
lhumerus -21.4923 -2.78383 84.5032
lradius 28.2954
lwrist 4.6296
lhand -11.8115 31.2578
lfingers 7.12502
lthumb 14.2387 60.7497
rfemur -40.9273 -2.32166 20.2671
rtibia 39.2348
rfoot -8.32699 -3.92377
rtoes -12.606
lfemur -25.7766 2.21526 -15.0983
ltibia 32.2888
lfoot -18.5509 2.25893
ltoes -7.12779
213
root 1.19164 17.9884 -5.52225 16.3175 1.64807 -5.69242
lowerback 4.21706 1.21455 -4.16893
upperback 5.1382 1.47397 3.21204
thorax 2.76592 0.539226 5.65373
lowerneck -13.9528 2.28845 0.679971
upperneck 41.7292 7.88314 -10.1715
head 18.7553 1.94581 -3.45728
rclavicle 1.35174e-014 2.20651e-014
rhumerus -15.9809 -1.68334 -81.6552
rradius 34.0633
rwrist -11.5359
rhand -20.5236 13.0299
rfingers 7.12502
rthumb 5.83433 -16.8698
lclavicle 1.35174e-014 2.20651e-014
lhumerus -21.4854 -3.08392 84.5071
lradius 28.5394
lwrist 5.03809
lhand -11.8368 31.3217
lfingers 7.12502
lthumb 14.2143 60.8153
rfemur -41.2117 -2.29005 20.2749
rtibia 37.8902
rfoot -8.43037 -3.32869
rtoes -12.5322
lfemur -26.1489 2.04965 -15.1531
ltibia 32.252
lfoot -18.4844 2.22592
ltoes -7.3572
214
root 1.17271 17.9922 -5.50617 16.6499 1.96462 -5.66809
lowerback 4.35753 1.16459 -4.28668
upperback 5.19569 1.39808 3.37203
thorax 2.75295 0.493411 5.89007
lowerneck -13.9553 2.30996 0.470424
upperneck 41.6039 7.97347 -10.1766
head 18.6796 1.95183 -3.39292
rclavicle 8.97016e-015 1.19271e-014
rhumerus -15.6174 -1.25347 -81.5143
rradius 34.1577
rwrist -11.6565
rhand -20.6807 13.5922
rfingers 7.12502
rthumb 5.68265 -16.3116
lclavicle 8.97016e-015 1.19271e-014
lhumerus -21.3236 -2.88831 84.5611
lradius 28.7317
lwrist 5.23275
lhand -11.7475 31.2408
lfingers 7.12502
lthumb 14.3003 60.7284
rfemur -41.456 -2.19683 20.3941
rtibia 36.542
rfoot -8.4774 -2.79478
rtoes -13.1727
lfemur -26.4901 2.08758 -15.0883
ltibia 32.1731
lfoot -18.427 1.90867
ltoes -7.24776
215
root 1.15233 17.9956 -5.48523 16.9082 2.3305 -5.65787
lowerback 4.52068 1.12186 -4.38198
upperback 5.29562 1.33099 3.55459
thorax 2.7714 0.450199 6.13838
lowerneck -14.139 2.42186 0.450195
upperneck 41.6522 8.22261 -10.2889
head 18.8017 2.02964 -3.39936
rclavicle 6.77421e-015 3.52222e-014
rhumerus -15.2477 -0.976068 -81.3129
rradius 34.2901
rwrist -11.4753
rhand -20.9357 14.2044
rfingers 7.12502
rthumb 5.43646 -15.7058
lclavicle 6.77421e-015 3.52222e-014
lhumerus -21.1669 -2.64968 84.6633
lradius 29.0058
lwrist 5.32593
lhand -11.6472 31.1145
lfingers 7.12502
lthumb 14.3969 60.5952
rfemur -41.5799 -2.07469 20.5078
rtibia 35.1831
rfoot -8.46407 -2.27553
rtoes -14.092
lfemur -26.7201 2.20197 -15.006
ltibia 32.0618
lfoot -18.4742 1.46407
ltoes -7.1231
216
root 1.13158 17.9945 -5.46375 17.188 2.64803 -5.5909
lowerback 4.63945 1.16117 -4.37578
upperback 5.38518 1.37873 3.61694
thorax 2.79124 0.470415 6.19888
lowerneck -14.0643 2.24815 0.160527
upperneck 41.4999 7.96373 -10.1375
head 18.6283 1.90855 -3.30775
rclavicle 4.47266e-015 7.30534e-015
rhumerus -14.9708 -1.08265 -81.133
rradius 34.4813
rwrist -10.963
rhand -20.8087 13.8487
rfingers 7.12502
rthumb 5.55901 -16.0583
lclavicle 4.47266e-015 7.30534e-015
lhumerus -21.0513 -2.90268 84.772
lradius 29.4299
lwrist 5.52912
lhand -11.6777 31.3043
lfingers 7.12502
lthumb 14.3675 60.7871
rfemur -41.7309 -1.94957 20.5513
rtibia 33.8237
rfoot -8.44124 -1.71409
rtoes -14.3473
lfemur -26.9459 2.28653 -14.9857
ltibia 31.918
lfoot -18.5368 1.16545
ltoes -7.48956
217
root 1.10914 17.994 -5.44265 17.5273 3.02132 -5.49131
lowerback 4.73497 1.17505 -4.33399
upperback 5.47692 1.39493 3.63678
thorax 2.83195 0.476196 6.1953
lowerneck -14.058 2.13454 0.0194634
upperneck 41.3858 7.7748 -10.0264
head 18.5183 1.83085 -3.25353
rclavicle -5.73991e-015 2.37051e-014
rhumerus -14.6189 -1.14665 -81.0357
rradius 34.6063
rwrist -10.8031
rhand -20.5789 13.0586
rfingers 7.12502
rthumb 5.78093 -16.8425
lclavicle -5.73991e-015 2.37051e-014
lhumerus -20.8807 -3.32173 84.8097
lradius 29.8502
lwrist 5.8679
lhand -11.6549 31.4977
lfingers 7.12502
lthumb 14.3895 60.979
rfemur -41.9475 -1.76634 20.5102
rtibia 32.5008
rfoot -8.44418 -1.19425
rtoes -13.2152
lfemur -27.2319 2.24921 -14.9687
ltibia 31.7419
lfoot -18.4884 0.923461
ltoes -7.69202
218
root 1.0867 17.9982 -5.41977 17.8592 3.44948 -5.34795
lowerback 4.92191 1.12323 -4.34346
upperback 5.54857 1.31988 3.65706
thorax 2.81274 0.436859 6.22218
lowerneck -14.0561 2.1199 0.0743516
upperneck 41.2387 7.74869 -10.1054
head 18.4332 1.82482 -3.29563
rclavicle -1.07344e-014 9.24349e-015
rhumerus -14.2664 -0.980436 -81.0342
rradius 34.6819
rwrist -10.9093
rhand -20.6532 12.639
rfingers 7.12502
rthumb 5.70922 -17.2641
lclavicle -1.07344e-014 9.24349e-015
lhumerus -20.7068 -3.53476 84.7737
lradius 30.2035
lwrist 6.24309
lhand -11.545 31.4577
lfingers 7.12502
lthumb 14.4955 60.9313
rfemur -42.1417 -1.52767 20.3639
rtibia 31.2486
rfoot -8.38355 -0.62452
rtoes -12.5486
lfemur -27.5075 2.19897 -14.9925
ltibia 31.5292
lfoot -18.4258 0.58463
ltoes -7.6386
219
root 1.06578 17.9996 -5.39763 18.222 3.92577 -5.23277
lowerback 5.17773 1.04509 -4.25504
upperback 5.58436 1.21062 3.67989
thorax 2.72325 0.386797 6.19506
lowerneck -14.155 2.19217 0.288386
upperneck 41.2446 7.91316 -10.3732
head 18.5166 1.89022 -3.43485
rclavicle -8.24956e-015 2.6339e-015
rhumerus -13.9064 -0.832968 -81.072
rradius 34.6998
rwrist -10.8845
rhand -20.8469 12.9641
rfingers 7.12502
rthumb 5.52213 -16.944
lclavicle -8.24956e-015 2.6339e-015
lhumerus -20.5616 -3.62882 84.7258
lradius 30.5389
lwrist 6.55177
lhand -11.5995 31.2092
lfingers 7.12502
lthumb 14.443 60.6866
rfemur -42.4096 -1.40739 20.2941
rtibia 30.0633
rfoot -8.27568 0.011901
rtoes -13.8301
lfemur -27.78 2.14869 -14.9755
ltibia 31.2888
lfoot -18.4002 0.227497
ltoes -7.78558
220
root 1.04176 17.9963 -5.37408 18.6191 4.43519 -5.19525
lowerback 5.38412 0.974834 -4.11105
upperback 5.63468 1.11474 3.75641
thorax 2.67454 0.342644 6.19433
lowerneck -14.3139 2.17066 0.171125
upperneck 41.2215 7.92583 -10.3681
head 18.5435 1.87539 -3.40563
rclavicle 2.83268e-014 1.39149e-014
rhumerus -13.4846 -0.701155 -81.0674
rradius 34.689
rwrist -10.9255
rhand -20.9738 13.4385
rfingers 7.12502
rthumb 5.39963 -16.4727
lclavicle 2.83268e-014 1.39149e-014
lhumerus -20.4799 -3.75822 84.7377
lradius 31.0549
lwrist 6.78067
lhand -11.5982 31.3049
lfingers 7.12502
lthumb 14.4442 60.7822
rfemur -42.7476 -1.29251 20.3199
rtibia 28.9433
rfoot -8.22215 0.606497
rtoes -14.7017
lfemur -28.0409 2.05551 -14.8401
ltibia 31.0404
lfoot -18.439 -0.059247
ltoes -8.15293
221
root 1.01122 17.9951 -5.3484 18.9591 4.98747 -5.16498
lowerback 5.56397 0.971129 -4.01475
upperback 5.71828 1.10692 3.85828
thorax 2.66273 0.33865 6.24604
lowerneck -14.4152 2.02262 -0.0172515
upperneck 41.1608 7.70766 -10.2399
head 18.4907 1.77686 -3.3438
rclavicle 1.86858e-014 -2.8128e-014
rhumerus -13.165 -0.664389 -80.9744
rradius 34.7782
rwrist -11.132
rhand -20.9817 13.1357
rfingers 7.12502
rthumb 5.39199 -16.7757
lclavicle 1.86858e-014 -2.8128e-014
lhumerus -20.3766 -4.17225 84.8379
lradius 31.7327
lwrist 7.06679
lhand -11.3148 32.0037
lfingers 7.12502
lthumb 14.7172 61.4613
rfemur -42.9989 -0.974448 20.2554
rtibia 27.9077
rfoot -8.18215 0.987302
rtoes -14.5219
lfemur -28.3042 2.09828 -14.698
ltibia 30.7877
lfoot -18.4346 -0.566498
ltoes -8.4354
222
root 0.97958 17.9954 -5.32563 19.3315 5.60981 -5.12239
lowerback 5.72172 0.957011 -3.92837
upperback 5.79215 1.08587 3.981
thorax 2.65472 0.327462 6.32649
lowerneck -14.3916 1.87767 -0.0709239
upperneck 40.9971 7.48317 -10.2412
head 18.357 1.68737 -3.36345
rclavicle 1.86858e-014 -1.45113e-014
rhumerus -12.8349 -0.606402 -80.8325
rradius 34.8547
rwrist -11.3378
rhand -20.9799 12.7108
rfingers 7.12502
rthumb 5.39372 -17.2005
lclavicle 1.86858e-014 -1.45113e-014
lhumerus -20.1448 -4.5277 84.9614
lradius 32.1175
lwrist 7.23592
lhand -11.325 32.1269
lfingers 7.12502
lthumb 14.7074 61.5852
rfemur -43.2882 -0.606894 20.1395
rtibia 26.9526
rfoot -8.13374 1.17711
rtoes -15.0419
lfemur -28.6971 2.23951 -14.5777
ltibia 30.5505
lfoot -18.3644 -1.30476
ltoes -8.51039
223
root 0.953614 17.995 -5.30161 19.749 6.12432 -4.97636
lowerback 5.84239 0.887868 -3.93309
upperback 5.88484 0.989561 4.09401
thorax 2.69753 0.273454 6.45331
lowerneck -14.3344 1.81248 -0.134661
upperneck 40.696 7.41296 -10.3639
head 18.1595 1.64507 -3.40064
rclavicle 1.41137e-014 1.55052e-014
rhumerus -12.3254 -0.288127 -80.7052
rradius 34.7991
rwrist -11.5334
rhand -21.0166 12.6517
rfingers 7.12502
rthumb 5.35831 -17.2605
lclavicle 1.41137e-014 1.55052e-014
lhumerus -19.9754 -4.44372 85.042
lradius 32.4012
lwrist 7.24201
lhand -11.6077 31.3553
lfingers 7.12502
lthumb 14.435 60.8333
rfemur -43.6626 -0.465947 19.9994
rtibia 26.0995
rfoot -8.06123 1.69669
rtoes -15.3976
lfemur -29.0897 2.21152 -14.5834
ltibia 30.3416
lfoot -18.3235 -1.70244
ltoes -8.94454
224
root 0.929053 17.9969 -5.27275 20.1291 6.53111 -4.81621
lowerback 5.92967 0.850633 -3.90288
upperback 6.06005 0.937209 4.16683
thorax 2.84039 0.238435 6.51759
lowerneck -14.4486 1.74044 -0.250679
upperneck 40.4748 7.34651 -10.4298
head 18.053 1.59636 -3.40624
rclavicle 5.36719e-015 1.27222e-014
rhumerus -11.7183 0.0101092 -80.6032
rradius 34.7148
rwrist -11.7944
rhand -20.7431 12.5547
rfingers 7.12502
rthumb 5.62239 -17.3507
lclavicle 5.36719e-015 1.27222e-014
lhumerus -19.7929 -4.38216 85.0978
lradius 32.9181
lwrist 7.39732
lhand -11.6687 30.8595
lfingers 7.12502
lthumb 14.3763 60.3417
rfemur -44.0196 -0.446824 19.927
rtibia 25.3827
rfoot -7.85376 2.46825
rtoes -14.2749
lfemur -29.4215 2.12188 -14.6185
ltibia 30.1653
lfoot -18.2406 -1.91049
ltoes -9.20407
